<svg width="24" height="24" viewBox="0 0 24 24" fill="none" xmlns="http://www.w3.org/2000/svg">
<path fill-rule="evenodd" clip-rule="evenodd" d="M9.02975 3.3437C10.9834 2.88543 13.0166 2.88543 14.9703 3.3437C17.7916 4.00549 19.9945 6.20842 20.6563 9.02975C21.1146 10.9834 21.1146 13.0166 20.6563 14.9703C19.9945 17.7916 17.7916 19.9945 14.9703 20.6563C13.0166 21.1146 10.9834 21.1146 9.02975 20.6563C6.20842 19.9945 4.0055 17.7916 3.3437 14.9703C2.88543 13.0166 2.88543 10.9834 3.3437 9.02974C4.0055 6.20841 6.20842 4.00549 9.02975 3.3437ZM10.7139 9.90158C10.4896 9.67727 10.1259 9.67727 9.90158 9.90158C9.67727 10.1259 9.67727 10.4896 9.90158 10.7139L11.1877 12L9.90158 13.2861C9.67727 13.5104 9.67727 13.8741 9.90158 14.0984C10.1259 14.3227 10.4896 14.3227 10.7139 14.0984L12 12.8123L13.2861 14.0984C13.5104 14.3227 13.8741 14.3227 14.0984 14.0984C14.3227 13.8741 14.3227 13.5104 14.0984 13.2861L12.8123 12L14.0984 10.7139C14.3227 10.4896 14.3227 10.1259 14.0984 9.90158C13.8741 9.67727 13.5104 9.67727 13.2861 9.90158L12 11.1877L10.7139 9.90158Z" fill="#363853"/>
</svg>
